<svg version="1.2" xmlns="http://www.w3.org/2000/svg" viewBox="0 0 652 652" width="652" height="652"><style>.a{fill:#fff}</style><path  d="m63.1 295l-9.8-3.1c-25.3-8.4-46.9-35.9-27.7-61.3 18.6-24.9 63.9-14.8 83.4 3.9 18.6 17.7 17.4 46.6-7.1 58.2-12.1 5.7-26.1 5.6-38.8 2.3zm-40.2-51c-3.2 16.6 19.2 22.8 30.7 26.8 13.1 4.6 36.6 12.9 50.3 11.3 13.1-1.5 18.2-18.6 9.2-27.2-9.3-9-30-13.9-42.3-17.5-13.6-3.9-43.5-15.4-47.9 6.6z"/><path  d="m126.3 210.2c5.7-11.2 24.9-1 19.9 9.8-6.6 14.5-26.2 2.6-19.9-9.8z"/><path  d="m141.9 172.7c14.6 7.8 35.9 9.2 45.4-7.1 7.1-12.3-4.9-27-18.1-25.8-23.3 4.1-53.3 22.6-68.9-5.8-5-9.3-3.7-20.8 3.1-28.9 4.7-5.7 17.5-15.4 24.2-18.8 2.6-1.3 5.4-0.9 7 1.5 1.6 5.2 4.6 11.1 5.8 16.3 0.1 0.6 0 1-0.2 1.6-0.3 0.2-6.3-2.3-7.3-2.6-6.6-2.1-14.1-1.9-20.5 0.9-16.9 7.1-12.4 30.6 6.5 29.3 20.3-1.5 45.7-19.9 63.6-2.6 5.7 5.6 9.9 10.4 11.1 18.5 3 20-15.5 32.3-30.8 41-2.9 1.7-7.2 4.3-10.3 5.4-2.2 0.8-3.1 0.5-4.3-1.6-1.7-5.9-4.3-11.7-6-17.7-0.3-1.1-0.4-2.5-0.3-3.6z"/><path  d="m199 82.5c1.1 0.3 8-4.5 10-5.1 2.2-0.7 3.9 2.9 2.7 4.1-0.6 0.6-3.5 1.9-4.6 2.4-1.4 0.7-6.1 1.9-5.6 4 6 11.5 11.9 23 18 34.4 0.4 0.7 0.9 1.2 1.3 1.9 1.4 2.7 2.9 7.5 5.2 9.4 2.7 2.2 6.3 1.3 9-0.7 1.1-0.9 1.9-3.1 2.7-3.6 1-0.5 1.2-0.2 1.6 0.7 0.5 1.1-0.7 3.2-1.2 4.4-2.8 6.6-7.3 14.2-15.4 14.3-4 0-8-1.9-10.2-5.3-4.6-7.1-8.6-16.7-12.5-24.4-2.9-5.6-5.7-11.2-8.6-16.9-0.7-1.4-3.1-6.5-4-7.2-0.9-0.9-3.2 1-3.9 1.4-1.6 0.9-3.5 2-5.1 2.7-1 0.4-3 1.1-2.2-0.7 0.9-2 3.1-4.5 4.2-6.6 3.6-6.8 5.3-16.2 5.1-23.8 0-2.7-1.1-5.2-1.2-7.8-0.1-0.5-0.3-1.8 0.3-2.1 1.7-1.1 3 2.1 3.5 3.3 3.2 6.4 6.2 14.3 10 20.2 0.3 0.4 0.5 0.8 0.9 1z"/><path  d="m264.3 75.4c0.4 0 0.6-0.1 0.9-0.3 1.3-0.9 2.7-6.9 3.4-8.7 2.6-6.6 9.1-16.5 17.3-11.3 5.9 3.8 6.3 14.3-0.2 17.9-5.8 3.2-11.6-3.4-17.6 3-3.4 3.7-1.7 7-0.9 11.2 1.7 9.2 3.7 19.9 6.2 29 0.6 2 2.2 6.8 3.7 8.1 1.2 1.1 2.9 1.1 3.7 2.9l-11.4 2.5c-3.4 0.8-8.2 2.8-11.5 3.1-1 0.1-1.9 0.2-1.9-0.9-0.1-1.7 1.5-2.3 2.2-3.8 1.5-3.5-1-10.9-1.8-14.7-2.1-10.5-4.1-22.5-7-32.7-0.7-2.4-1.9-5.8-4-7.3-1-0.7-4.5-1.7-1.9-3.5 1.5-1.2 4.1-2.2 5.9-3.4 4-2.5 7.6-5.4 10.6-9 1 1.7 1.4 3.5 1.7 5.3 0.7 3 1.2 6.1 1.8 9.1 0.3 1.2 0.6 2.3 0.8 3.5z"/><path  d="m334.1 52.4c13.7 0.3 24.5 12.1 27 24.9 3.9 20.1-4.5 47.2-28.5 47.9-41.3 1-37.7-73.7 1.5-72.8zm-1.1 3.4c-7.1 0.6-10.4 9.2-11.3 15.3-1 6.8-1.1 14.2-1.2 21 0 8.4-1.9 29.8 11.2 29.5 9.6-0.2 11-14.6 11.8-21.6 1.1-9.5 1.7-19.9 0.7-29.4-0.7-6.5-2.9-15.4-11.2-14.8z"/><path  d="m324.6 28c7-1.1 7.6 9.2 1.1 9-6.1-0.2-6-8.2-1.1-9z"/><path  d="m348 36.6c-2.3 2-7.7 1.2-8.1-2.2-0.7-6.4 7.3-7.5 8.9-2.4 0.5 1.5 0.4 3.4-0.8 4.6z"/><path  d="m376.5 124.2c1.7-1.7 4.1-1.4 5.8-2.8 1.1-0.8 2.1-2.3 2.8-3.4 7.5-12.9 12.9-28.3 20.3-41.5 0.7-1.7 1.1-4.1 0.6-5.9-0.4-1.3-1.6-2.4-1.6-4l6 1.2c5.6 0.8 11.1 0.3 16.6-0.5-0.2 3.5-2.9 6-4 9.2-0.6 1.6-0.5 2.4 1.3 2.5 2.5 0.2 6.5-0.7 9.3-0.8 9.5-0.3 28.8 1.3 21.3 15.6-0.2 0.8 1.2 1 1.8 1 2.1 0.2 6-0.7 8.4-0.8 6.7-0.4 14.3 0 20.1 3.8 4.4 2.9 4.3 6.3 2.5 10.7-5.8 13.9-14.1 27.8-20.4 41.7-1.2 2.5-4.2 8.6-4.3 11-0.2 2.9 2.2 4 1.5 6.6l-23.8-11.6c0.5-1.9 2.6-1.3 4-1.7 1.6-0.4 3.1-1.4 4-2.9 2.4-3.6 4.1-7.9 6.1-11.7 4.5-8.7 9.8-18.2 13.6-27.2 2.6-6.4 3.2-9.9-3.6-13.3-2.3-1.2-8.9-2.6-11.2-1.4-2.4 1.2-2.7 3.8-3.7 5.9-5.7 12-13.1 24.6-18 36.7-0.8 1.9-1.6 4.6-1.1 6.6 0.2 1.1 1.1 1.8 1.3 2.7 0.1 0.4-0.1 1.8-0.6 1.5l-23-11.3c1.5-1.6 4-1.1 5.7-2.1 1.2-0.7 2.1-1.8 2.9-3 5.8-13.8 14.8-27.6 20.3-41.4 1.1-2.8 1-5.5-1.1-7.8-4-4.3-9.3-3.8-14.6-4.5-0.8 0-1.3 0.7-1.8 1.3-6 13.7-14.3 27.2-20 41-0.6 1.4-1.7 4.2-1.7 5.6-0.1 2 1.5 4.5 1.8 6.5l-23.5-11.5z"/><path class="a" d="m504.8 216.1c0.1-0.9 0.9-2 1.6-2.5l22.4-16.3c2.1-0.8 3.9 7.2 6.5 5.1 2.3-1.9-2.7-5-3-6.7-0.2-1.2 1.9-2.4 2.7-3 1.8-1.3 4.1-2.5 5.9-3.7 0.7-0.5 4.6-3.2 4.6-3.6l-0.5-0.8c-5.8 1.3-12.3 2.8-18.2 1.2-1.8-0.4-3.5-1.4-5.2-2.1-0.8-0.3-1.2 0.4-0.9 1 0.7 1.6 4 4 2.6 5.6l-24.8 17.9c-4.6 4.8-1.6 9.1 3.5 11.7 1 0.4 6.2 3 6.6 1.5-0.6-2.3-4.3-2-3.8-5.3z"/><path  d="m494.8 173c-0.6-0.1-1.3 0.4-1.7 0.8-1.7 1.6-4.7 5.3-5.6 7.5-2 5.1 0.7 11 5.4 13.6 0.7 0.4 6 1.8 6 2.2-1.4 1.4-3.4 1.3-5.2 1.4-6 0.4-10.1-0.6-13.7-6-11-16.9 15.9-35.2 31.4-27.2 8.5 4.3 6.9 14.5 1.6 20.7-1.3 1.6-3.8 4.9-5.8 2.7-3.9-4.4-7.2-10.6-11.1-14.8-0.2-0.3-1-0.9-1.4-0.9zm6.1-3.9c-1 0.5-1.9 1.5-2.9 2.1 2.6 3.5 4.7 7.3 7.8 10.4 0.6-1.1 1.8-1.5 2.6-2.2 3.2-2.9 8.5-9.8 1.5-11.8-2.5-0.7-6.8 0.2-9 1.5z"/><path  d="m504.8 216.1c-0.5 3.3 3.2 3 3.8 5.3-0.4 1.5-5.6-1.1-6.5-1.5-5.1-2.6-8.2-6.9-3.6-11.7l24.8-17.9c1.4-1.6-1.9-4-2.6-5.6-0.3-0.6 0.2-1.3 0.9-1 1.7 0.7 3.4 1.7 5.2 2.1 5.9 1.6 12.5 0.1 18.2-1.2l0.5 0.8c0 0.4-3.9 3.1-4.5 3.6-1.8 1.2-4.2 2.4-6 3.7-0.8 0.6-2.9 1.8-2.7 3 0.4 1.7 5.3 4.8 3 6.7-2.6 2.1-4.4-5.9-6.5-5.1l-22.4 16.3c-0.7 0.5-1.4 1.6-1.6 2.5z"/><path  d="m574.3 295.6l-0.5-0.5c-0.2-0.5 2.1-3.2 2.5-3.9 5.8-9.5 2.6-16 0-26.1-0.2-0.5-0.1-1.1-0.3-1.7-0.3-1.2-2-7.4-2.5-8-0.4-0.5-1.3-0.3-1.9-0.2-8.3 1.7-17.1 5.7-25.6 7.6-4.7 2.6-12.9 2.5-16.3 7-1.3 1.8-1.6 3.9-2.6 5.7-0.4-0.7-0.9-1.3-1.2-2.1-2.6-6.6-4-14.7-6.2-21.6-0.3-1-0.8-1.8-1.1-2.8-0.3-1-0.1-1.9-0.6-2.8 2.8 1.4 4.3 3.7 7.6 4 2.7 0.3 4.8-0.8 7.4-1.5 26.2-6.6 52.1-15.9 78.2-23.1 2.2-0.9 4-2.5 4.8-4.8 0.4-1.2 0.7-5.6 2.3-1.6 1.6 4 2.8 9.4 4.1 13.7 3.5 12.4 6.8 25.1 10.6 37.4 0.7 2.2 2.3 4.8 4.3 5.9 1 0.6 2.4 0.5 2.7 1.8l-25.2 13.3c-0.1-0.3-0.4-0.4-0.2-0.8 0.3-1.3 3.2-4.7 4.1-6.2 6.7-10.9 8.4-23.1 3.5-35.2-2.4-6.3-7.6-6-13.1-4.6-7.2 1.8-14.5 4.4-21.6 6.5-2.5 0.7-5.4 1-7.9 2.1-1.5 0.6-2 1-1.7 2.7 1.1 5.6 4.8 17.7 7.8 22.4 3.5 5.3 8 7.1 13.4 10z"/><path  d="m607.2 329l-62.5 1c-1.7 0-5.2 1.9-6.5 3.1-0.3 0.3-1.7 2.9-2.3 2.1 0-0.4-0.5-0.9-0.6-1.3-0.8-2.9-0.1-8.4-0.1-11.6 0-3.6-0.4-7.8-0.2-11.3 0.1-0.9 0.4-1.5 0.5-2.3 2.8 2.6 4.5 5.2 8.7 5.5 8.1 0.8 18.8-0.3 27.2-0.4 5.6 0 17.9 1.2 22.5-1.7 2-1.3 2.2-3.5 4.4-3.9 1.2 3.4 2.4 6.8 3.8 10.1 1.3 3.1 4 7.2 4.9 10 0.1 0.2 0.2 0.4 0.2 0.7z"/><path  d="m638.9 320.5c0.6 14.2-25.8 12.7-20.6-3 3.2-9.6 20.1-8.2 20.6 3z"/><path  d="m635 387.3c-0.7 0.1-1.2 0.3-1.9 0.3-5.8-0.1-11.8-1.5-17.6-2.2-25.3-3-50.5-5.7-75.8-8.5-1.8-0.1-4.2 0.7-5.5 1.9-0.8 0.7-1.4 2-2.5 2.2-1.6-0.4 0-6.2 0.2-7.4 0.7-5.7 1.1-11.6 1.9-17.3l0.6-0.4c1 1.6 2.2 3.2 3.9 4.2 4.6 2.9 13.7 2.5 19.1 3.1 19.3 2 38.6 4.8 57.8 6.1 2.7 0.2 5.2 0.8 7.9 0.2 3-0.7 3.8-3.3 6.5-4.2 0.2 5.4 1.6 10.6 3.3 15.6 0.3 1 2.4 6 2.1 6.4z"/><path  d="m576.9 466.5c-2.6-0.1-3.9-1.9-5.7-3.2-2.1-1.4-12.8-8-13.2-9.8 10.9-2.1 24.8-9.5 23.5-22.6-0.7-6.9-8.2-10.1-13.8-5.6-10 8-17.1 25.6-29.2 29.8-12.8 4.3-28.4-5.5-28-19.3 0.2-9 6.1-22.1 10.4-30.1 0.7-1.2 3.9-7.2 4.9-7.2l14.8 11.9c0.4 0.4 1 1.6 1 2.1 0.1 0.5-0.4 0.2-0.6 0.3-9.5 0.7-16.8 3.3-22.9 11.1-4.4 5.7-7.5 16.6-0.3 21.4 10.1 6.7 17.7-7.5 22.7-14.1 8.8-11.6 19.6-22.8 35-13.8 16.6 9.7 7.2 24.4 2.8 37.7-1.3 3.9-1.6 7.3-1.4 11.4z"/><path  d="m105.5 408q1.1 3.1 1.5 5.8 0.4 2.7-0.2 4.9-0.6 2.2-2.3 3.9-1.7 1.6-4.8 2.7-3.2 1.1-5.6 0.8-2.5-0.3-4.4-1.6-1.8-1.4-3.2-3.8-1.4-2.4-2.5-5.5l-2.5-7.4-9.3 3.1q-2.2 0.8-0.4 6.1l-2.8 1-5.7-17 2.7-1q1.5 4.3 3.7 3.6l25.8-8.7q2.2-0.8 0.7-5l2.9-1 6.4 19.1zm-6.5-6.1l-13.5 4.6 2.2 6.6q1.3 3.9 3.7 4.9 2.3 1.1 5.8 0 3-1.1 4.2-3.3 1.1-2.3-0.2-6.2c0 0-2.2-6.6-2.2-6.6z"/><path  d="m93.3 460.6q-2 1-1.3 2.4 0.3 0.6 1.1 0.6 0.7 0 1.5-0.4l2.7-1.3 1.1 2.1-2.1 1q-1.5 0.8-2.7 1-1.2 0.1-2.2-0.2-1-0.4-1.7-1.2-0.8-0.8-1.3-1.9-0.6-1.2-0.7-2.2-0.1-1.1 0.3-2 0.3-0.9 1-1.6 0.6-0.8 1.4-1.4-1.2 0-2.6-0.4-1.3-0.4-2.7-1.3-1.3-0.9-2.5-2.2-1.1-1.4-2.1-3.1-2.1-4.3-1.4-7.1 0.8-2.9 3.7-4.4 1.9-0.9 3.4-0.8 1.6 0.1 3 0.9 1.5 0.8 2.8 2.2 1.3 1.4 2.7 3.1 1.3 1.7 2.7 3.5 1.4 1.8 2.9 3.6l1.4-0.7q1.2-0.6 2-1.4 0.9-0.8 1.3-1.9 0.4-1 0.3-2.2-0.1-1.2-0.7-2.6-1.2-2.3-2.5-3.6-1.2-1.4-2.5-1.9 0.5 1.1 0.3 2.1-0.3 1-1.4 1.6-1.2 0.6-2.4 0.2-1.3-0.4-2-2-0.9-1.6-0.4-2.8 0.4-1.2 1.9-2 1.1-0.5 2.6-0.4 1.5 0.2 3.1 1.1 1.6 0.9 3.2 2.6 1.6 1.7 2.9 4.3 1.1 2.1 1.7 4.2 0.6 2.2 0.4 4.1-0.2 2-1.3 3.7-1.2 1.7-3.6 3l-11.3 5.7zm5.3-10.2q-2.2-2.5-3.9-4.3-1.7-1.8-3.1-2.9-1.4-1-2.7-1.2-1.3-0.2-2.6 0.4-1.6 0.9-2 2.5-0.3 1.6 0.9 3.9 1.2 2.3 3.2 3.5 2 1.2 3.9 1.3l6.3-3.2z"/><path  d="m119.1 471.4q3.2-0.4 5.5 0.6 2.3 1 3.7 3 0.6 0.9 1 2.1 0.4 1.2 0.3 2.4-0.1 1.2-0.8 2.4-0.6 1.2-1.9 2.1-1.6 1.1-3.2 1-1.6-0.2-2.7-1.6-1-1.5-0.7-2.8 0.2-1.3 1.3-2 1.1-0.8 2.3-0.6 1.1 0.2 2.2 1.6 0.4-0.7 0.2-1.7-0.2-1-0.8-1.8-0.5-0.8-1.5-1.4-1-0.6-2.3-0.9-1.3-0.3-3-0.2-1.7 0.1-3.7 0.7l-9 6.1q-0.9 0.7-0.7 2.1 0.3 1.3 1.7 3.3l-2.4 1.7-9.3-13.4 2.4-1.7q2.5 3.6 4.4 2.3l12.7-8.8q1.9-1.3-0.6-4.9l2.4-1.6 6.4 9.3-3.9 2.7z"/><path  d="m126.1 506.3q-1.8 1.4 1.2 4.8l-2.2 1.9-10.3-11.9 2.2-1.9q2.8 3.3 4.6 1.8l11.7-10.1q1.8-1.5-1.1-4.8l2.2-1.9 7.4 8.6c0 0-15.7 13.5-15.7 13.5zm22.6-18.6q-1.4 1.1-3.2 1-1.8-0.1-3-1.5-0.6-0.6-0.8-1.5-0.3-0.8-0.2-1.6 0.1-0.8 0.4-1.6 0.4-0.8 1.1-1.4 1.4-1.2 3.2-1 1.8 0.1 2.9 1.5 1.2 1.3 1.1 3.1-0.2 1.8-1.5 3z"/><path  d="m157.4 521.7l-2.4-1.8q2-3 1.5-5.9-0.6-2.9-3.2-5.5-1.6-1.4-3.1-1.7-1.5-0.3-2.5 0.7-1.2 1.2-0.7 2.7 0.4 1.5 1.5 3.2 1.1 1.8 2.5 3.7 1.4 1.9 2.3 3.9 0.8 2 0.7 4.1-0.1 2.1-1.9 4-1.3 1.4-2.9 2-1.5 0.6-3.1 0.4-1.6-0.2-3.3-1.1-1.6-0.9-3.1-2.3-2.2-2.1-3.3-3.9-1.1-1.7-1.4-3.4-0.1-0.3-0.3-0.8-0.1-0.4-0.4-0.6 0-0.1-0.8 0-0.7 0.1-1.6 0.8l-2.2-2 6.8-7.1 2.3 1.8q-1 1.4-1.3 3.1-0.2 1.6 0.1 3.3 0.4 1.6 1.3 3.2 0.9 1.6 2.3 2.8 1.7 1.7 3.3 1.9 1.6 0.1 2.6-1 1.1-1.1 0.6-2.6-0.4-1.5-1.5-3.2-1.1-1.8-2.5-3.7-1.3-2-2.2-4-0.8-2-0.7-4.1 0.1-2.1 2-4 2.4-2.6 5.5-2.3 3.2 0.2 6.4 3.3 1.7 1.6 2.7 3.4 1 1.9 1.4 3.2 0.1 0.5 0.2 0.9 0.2 0.3 0.4 0.6 0.1 0.1 0.8 0 0.7-0.2 1.6-0.7l2 1.9c0 0-6.4 6.8-6.4 6.8z"/><path  d="m255.1 578.5l-13.7-4.2 1.2-3.7 13.7 4.2z"/><path  d="m365.4 562.3q0 1.4 0.1 2.4 0.1 0.9 0.2 1.8l4 24.7q0.4 2.2 5.7 1.3l0.4 2.9-18.8 3-0.5-2.8q6.2-1.1 5.9-3.2l-3.4-20.7-6.6 1.1-0.7-2.7q7-1.3 8.8-7.6z"/><path  d="m398.7 569.7q4.1 0 6.9 1.8 2.8 1.8 3.8 5.3 0.7 2.4 0.2 4.6-0.5 2.1-1.9 3.8-1.4 1.7-3.7 3-2.3 1.4-5.2 2.2-3 0.9-5.6 1-2.7 0.2-4.8-0.5-2.2-0.6-3.7-2.1-1.5-1.4-2.2-3.8-0.9-2.9 0.3-5.8 1.2-2.8 4.7-4.9-1.4-0.2-2.7-0.6-1.4-0.4-2.5-1.2-1.1-0.7-2-1.8-0.8-1-1.2-2.4-0.7-2.2-0.2-4.1 0.5-1.8 1.8-3.3 1.3-1.5 3.4-2.7 2-1.1 4.7-1.9 2.6-0.7 5-0.9 2.3-0.2 4.2 0.4 1.9 0.5 3.3 1.8 1.4 1.2 2 3.3 0.6 2.3-0.6 4.6-1.2 2.4-4 4.3zm-3.8-0.4q2-1.5 2.8-3 0.8-1.5 0.1-3.9-0.3-0.9-0.9-1.7-0.6-0.9-1.5-1.3-0.9-0.5-2.3-0.6-1.3 0-3 0.5-3 0.9-4.2 2.5-1.2 1.7-0.5 3.9 0.3 1.1 1.2 1.8 0.9 0.7 2.2 1.1 1.3 0.4 2.9 0.5 1.5 0.2 3.2 0.2zm-4.2 5.6q-2.3 1.7-2.9 3.6-0.6 2 0.2 4.8 0.8 2.7 3.2 3.9 2.4 1.1 6.2 0 7.4-2.2 5.8-7.6-0.5-1.9-1.9-2.8-1.3-0.9-3.1-1.3-1.8-0.3-3.7-0.4-2 0-3.8-0.2z"/><path  d="m437.8 559.2l4.2-1.9 1.1 4-3.6 1.7 2 4.4q1 2.1 5.2 0.2l1.2 2.6-16.6 7.5-1.2-2.6q5.7-2.6 4.7-4.7l-2-4.4-16.1 7.3-1.2-2.8 7.5-27 6.3-2.9 8.5 18.6zm-17.9 8.1l11.2-5.1-6.1-13.4z"/><path  d="m462.8 538.9q3.9-1.3 7.1-0.3 3.2 1 5.1 4 1.4 2.2 1.5 4.4 0.2 2.1-0.7 4.2-0.9 2-2.8 3.9-1.8 1.9-4.4 3.6-2.5 1.6-5 2.5-2.5 0.9-4.8 0.9-2.2 0-4.1-1-1.9-1-3.2-3-1.6-2.6-1.3-5.7 0.3-3.1 3.1-6.1-1.4 0.3-2.8 0.2-1.4 0-2.7-0.4-1.3-0.4-2.4-1.2-1.1-0.7-1.9-2-1.2-1.9-1.3-3.8-0.1-1.9 0.8-3.7 0.8-1.8 2.5-3.5 1.7-1.7 4-3.2 2.3-1.4 4.5-2.3 2.2-0.8 4.2-0.8 2 0 3.7 0.8 1.6 0.8 2.8 2.6 1.2 2 0.7 4.6-0.5 2.6-2.6 5.2zm-3.8 0.7q1.5-1.9 1.9-3.6 0.3-1.6-1.1-3.8-0.5-0.8-1.3-1.4-0.7-0.6-1.8-0.8-1-0.2-2.3 0.1-1.3 0.3-2.8 1.3-2.7 1.7-3.3 3.6-0.6 1.9 0.6 3.9 0.6 0.9 1.7 1.3 1.1 0.4 2.4 0.5 1.3 0 2.9-0.3 1.6-0.3 3.1-0.8zm-2.4 6.6q-1.8 2.3-1.8 4.3 0 2 1.6 4.5 1.5 2.4 4.1 2.8 2.6 0.4 5.9-1.7 6.6-4.1 3.5-8.9-1.1-1.7-2.6-2.2-1.5-0.5-3.4-0.3-1.8 0.2-3.6 0.7-1.9 0.5-3.7 0.8z"/></svg>