<?xml version="1.0" encoding="UTF-8"?><svg id="Calque_2" xmlns="http://www.w3.org/2000/svg" viewBox="0 0 593.31 533.16"><defs><style>.cls-1{stroke:#000;stroke-miterlimit:10;stroke-width:4px;}</style></defs><g id="Logo_cercle"><g id="O_Strom_et_FIls_Cercle"><path d="M513.38,126.22l9.67-3.32c25.45-8.19,59.12,1.16,58.72,33.04-.39,31.06-42.88,49.71-69.62,46.22-25.4-3.31-41.51-27.3-28.65-51.18,6.34-11.77,17.67-19.91,29.88-24.76ZM575.94,143.56c-7.15-15.28-28.87-7.04-40.54-3.48-13.27,4.05-37.22,11.26-47.28,20.64s-3.7,25.79,8.68,27.42c12.82,1.69,32.38-6.55,44.44-10.98,13.31-4.89,44.19-13.3,34.69-33.6Z"/><path d="M512.59,231.97c2.07,12.4-19.46,15.53-21.85,3.87-3.21-15.64,19.56-17.6,21.85-3.87Z"/><path d="M522.22,271.47c-16.39,2.29-34.4,13.72-32.38,32.57,1.51,14.09,19.87,18.91,29.83,10.06,16.39-17.06,29.63-49.75,58.95-36.03,9.55,4.47,15.27,14.55,14.63,25.06-.45,7.43-5.01,22.78-8.41,29.53-1.29,2.55-3.79,3.93-6.57,2.92-4.32-3.28-10.25-6.25-14.27-9.76-.48-.42-.64-.77-.81-1.36.1-.37,6.47-1.84,7.45-2.19,6.56-2.29,12.44-6.88,16.02-12.89,9.38-15.78-8.2-32.02-22.6-19.74-15.49,13.21-25.08,43.01-49.72,39.65-7.92-1.08-14.21-2.48-19.94-8.3-14.21-14.42-6.55-35.21.59-51.28,1.37-3.08,3.32-7.72,5.11-10.45,1.27-1.93,2.23-2.27,4.39-1.26,4.91,3.79,10.44,6.94,15.32,10.75.89.7,1.86,1.74,2.42,2.73Z"/><path d="M529.55,377.93c-1.1.38-3.82,8.37-5.05,10.05-1.38,1.88-4.88-.1-4.6-1.69.16-.91,1.7-3.67,2.23-4.7.74-1.43,3.84-5.17,2.17-6.52-11.63-5.71-23.21-11.53-34.88-17.15-.69-.33-1.42-.4-2.12-.73-2.81-1.35-6.75-4.33-9.74-4.47-3.54-.17-5.92,2.68-6.86,5.86-.4,1.34.3,3.61-.07,4.47-.45,1.04-.87.96-1.7.43-1.04-.66-1.34-3.01-1.64-4.29-1.61-6.95-2.5-15.71,3.96-20.59,3.19-2.41,7.54-3.22,11.33-1.79,7.93,3,16.83,8.4,24.5,12.25,5.65,2.83,11.31,5.71,16.91,8.56,1.4.71,6.4,3.42,7.54,3.49,1.27.09,1.95-2.73,2.33-3.53.78-1.63,1.63-3.66,2.54-5.16.55-.9,1.73-2.66,2.15-.75.46,2.1.2,5.47.53,7.85,1.06,7.57,5.26,16.14,9.92,22.17,1.69,2.19,3.93,3.53,5.62,5.53.37.44,1.25,1.32,1.03,1.9-.74,1.94-3.69.04-4.87-.58-6.28-3.28-13.42-7.79-19.95-10.33-.43-.17-.84-.37-1.31-.29Z"/><path d="M481.07,422.25c-.27.24-.42.49-.54.83-.51,1.44,1.94,7.09,2.44,9.03,1.74,6.82,2.41,18.66-7.27,19.26-7.08.44-13.55-7.8-10.47-14.49,2.79-6.06,11.41-4.11,12.42-12.9.56-4.94-2.77-6.58-5.87-9.5-6.85-6.47-14.77-13.93-22.19-19.69-1.68-1.3-5.75-4.26-7.73-4.42-1.62-.13-3.04.87-4.7-.12l7.65-8.76c2.36-2.62,4.97-7.08,7.49-9.34.7-.63,1.41-1.17,2.07-.36,1.06,1.29.14,2.75.5,4.4.82,3.71,7.26,8.19,10.12,10.8,7.9,7.21,16.58,15.66,25.01,22.15,1.98,1.53,4.94,3.6,7.49,3.55,1.27-.02,4.62-1.28,3.68,1.69-.59,1.86-2.02,4.22-2.79,6.21-1.71,4.39-2.91,8.89-3.23,13.58-1.78-.77-3.13-2.02-4.56-3.31-2.26-2.04-4.55-4.22-6.78-6.25-.89-.81-1.85-1.56-2.74-2.38Z"/><path d="M438.4,482.16c-11.17,7.81-26.94,4.69-36.5-4.17-14.98-13.88-24.32-40.7-5.3-55.43,32.69-25.3,74,37.08,41.8,59.6ZM437.28,478.69c5.43-4.65,2.95-13.6.07-19.05-3.2-6.05-7.49-12-11.48-17.53-4.94-6.85-16.07-25.23-26.49-17.21-7.56,5.82-.16,18.25,3.31,24.39,4.71,8.31,10.41,17.01,16.84,24.1,4.42,4.87,11.4,10.74,17.75,5.31Z"/><path d="M460.49,496.16c-4.94,5.03-11.54-2.95-6.18-6.6,5.07-3.45,9.63,3.07,6.18,6.6Z"/><path d="M436.57,503.11c.59-3.01,5.46-5.54,7.77-3.05,4.39,4.73-1.39,10.38-5.74,7.21-1.28-.93-2.35-2.5-2.03-4.16Z"/><path d="M363.83,440.65c-.28,2.38-2.25,3.07-2.8,5.22-.32,1.26-.22,3.09-.04,4.39,2.02,14.82,7.93,35.52,10.23,50.42.49,1.83,1.67,3.95,3.24,5.05,1.11.77,2.72.94,3.65,2.15l-5.48,2.75c-4.84,2.81-8.95,6.6-12.75,10.67-2-2.9-1.4-6.59-2.48-9.77-.53-1.57-1.09-2.13-2.61-1.11-2.09,1.4-4.72,4.53-6.82,6.3-7.3,6.18-23.51,16.79-26.34.84-.41-.7-1.55-.03-2.05.3-1.79,1.19-4.31,4.3-6.14,5.9-5.05,4.44-11.25,8.76-18.18,9.34-5.2.44-7.29-2.29-8.56-6.91-4-14.54-6.04-30.6-9.58-45.42-.64-2.67-2.39-13.68-3.74-15.67-1.62-2.39-4.18-4-5.24-6.49,0,0,10.44.25,13.81.22,3.18-.02,12.73-.09,12.73-.09.72,1.8-1.53,3.56-2.44,4.71-1.06,1.34-1.55,3.07-1.4,4.78.39,4.29,1.67,8.73,2.47,12.97,1.8,9.59,3.45,20.44,6.04,29.81,1.84,6.66,3.52,9.76,11.06,8.26,2.51-.5,8.48-3.45,9.61-5.78,1.18-2.45-.17-4.66-.68-6.95-2.89-12.93-4.88-27.48-8.45-40.03-.54-1.91-1.56-4.59-3.14-5.84-.89-.7-2.08-.76-2.72-1.33-.33-.29-1.08-1.43-.45-1.57l25.06-5.3c-.22,2.21-2.47,3.36-3.2,5.18-.52,1.28-.51,2.77-.44,4.13,3.96,14.48,5.32,30.89,9.53,45.15.85,2.89,2.64,4.98,5.7,5.48,5.79.94,9.6-2.66,14.18-5.43.64-.49.59-1.39.62-2.12-3.69-14.54-6.09-32.56-10.02-46.96-.39-1.45-1.3-4.32-2.13-5.46-1.22-1.66-4.08-1.93-5.58-3.38l25.55-8.43Z"/><path d="M109.81,435.34c.84,11.13,2.54,11.01,10.53,17.61l7.86,6.24s.09.05.13.06c.61.08,1.21-.52,1.59-.92,5.79-6.23,10.57-14.69,16.3-21.13.01-.01.02-.03.03-.05,2.37-4.9,9.02-9.52,9.15-15.21.05-1.99-.8-3.8-1.12-5.72-.03-.19.17-.34.35-.26.6.26,1.21.49,1.77.86,5.97,3.89,11.85,9.57,17.66,13.97.79.6,1.68.94,2.54,1.62.6.47,1.03,1.11,1.6,1.6.16.14.08.41-.13.43-2.79.25-5.18-.52-7.86,1.04-2.41,1.4-3.44,3.5-5.16,5.54-17.45,20.71-32.99,43.28-50.01,64.39,0,0-.02.02-.02.03-1.25,2.02-1.76,4.4-1.06,6.71.37,1.21,2.65,4.92-.93,2.62-3.61-2.31-7.83-5.99-11.3-8.71-10.15-7.98-20.22-16.45-30.53-24.21-1.83-1.38-4.57-2.51-6.9-2.29-1.1.11-2.07.91-3.1.25-.1-.07-.14-.21-.08-.32l12.62-25.26c.35.17.55.06.71.49.47,1.26.11,5.75.23,7.46.95,12.7,6.69,23.64,17.69,30.66,5.67,3.62,9.66.35,13.37-4,4.76-5.58,9.13-12,13.71-17.8,1.67-2.11,3.78-4.03,5.24-6.35.85-1.35,1-2.03-.23-3.17-4.18-3.87-9.58-7.98-14.71-10.03-5.73-2.28-10.37-1.23-16.11-.45-.22.03-.37-.22-.24-.39l15.26-20.47c.13-.18.41-.1.44.11l.68,5.07Z"/><path d="M56.43,421.72l47.37-40.75c1.25-1.08,2.81-4.8,2.98-6.5.05-.5-.5-3.39.42-3.15.35.34,1,.37,1.34.62,2.45,1.78,5.44,6.48,7.47,8.9,2.31,2.76,5.31,5.68,7.36,8.53.51.71.67,1.43,1.15,2.13-3.88-.25-6.76-1.14-10.27,1.3-6.68,4.63-14.22,12.26-20.61,17.7-4.31,3.67-14.51,10.54-16.19,15.75-.74,2.3.5,4.11-.9,5.85-3.09-1.87-6.21-3.75-9.43-5.38-2.94-1.49-7.62-2.93-10.11-4.49-.23-.14-.44-.26-.58-.5Z"/><path d="M37.52,448.59c-9.59-10.58,11.72-26.32,17.74-10.94,3.7,9.46-10.2,19.26-17.74,10.94Z"/><path d="M2.96,398.68c.41-.57.69-.99,1.27-1.44,4.59-3.53,10.22-6.19,15.11-9.24,21.61-13.45,43.09-27.04,64.63-40.61,1.35-1.06,2.79-3.21,3.1-4.91.19-1.05-.2-2.37.54-3.29,1.54-.64,3.84,4.83,4.47,5.87,3.03,4.97,6.34,9.77,9.31,14.77l-.27.66c-1.8-.59-3.68-1.08-5.6-.85-5.39.63-12.35,6.56-16.95,9.52-16.26,10.45-33.14,20.29-48.98,31.28-2.2,1.52-4.58,2.57-6.31,4.73-1.89,2.37-.9,4.89-2.46,7.32-3.48-4.06-7.86-7.24-12.29-10.17-.8-.53-5.6-3.15-5.58-3.64Z"/><path d="M0,306.24c2.16-1.5,4.19-.86,6.44-1.05,2.51-.21,14.99-1.68,16.42-.49-7.17,8.4-13.5,22.92-4.32,32.36,4.79,4.93,12.71,2.75,14.28-4.18,2.85-12.55-2.55-30.75,4.38-41.55,7.27-11.31,25.59-13.38,33.9-2.32,5.43,7.22,8.98,21.05,10.51,30.02.23,1.34,1.48,8.01.65,8.69l-18.98-.14c-.53-.05-1.78-.61-2.09-.95-.37-.39.17-.46.34-.61,7.03-6.51,11.07-13.03,10.95-22.99-.08-7.17-4.39-17.66-12.98-16.9-12.11,1.06-9.31,16.86-9.1,25.17.37,14.57-1.08,30.01-18.8,32.54-19.02,2.71-20.78-14.56-25.62-27.77-1.42-3.88-3.31-6.73-5.98-9.82Z"/><path d="M222.87,493.49c17.21-2.8,28.06-33.43,9.21-40.47-6.07-2.26-10-.66-14.63,3.23-1.38,1.17-3.05,2.21-3.31,4.16.18.37,5.37-1.65,6.15-1.75,5.3-.73,10.99,2.5,12.34,7.8.58,2.31.44,7.06-.06,9.38-.11.51-.35,1.34-.83,1.61-.3.17-1.27.15-1.65.07-5.59-1.12-11.98-4.13-17.7-5.37-2.89-.64-2.93,3.54-3.08,5.57-.59,8.13,4.15,17.3,13.57,15.78ZM217.01,480.29c.25-1.1.93-2.14.78-3.28,4.36.57,8.29,2.46,12.47,3.68-.45,1.08-.63,2.41-1.09,3.45-1.05,2.35-3.96,5.54-6.39,6.48-6.82,2.6-6.66-6.14-5.76-10.33Z"/><path d="M198.13,448.62c-1.52-2.95-4.35-.52-6.23-2.05-.51-1.45,5.16-2.45,6.22-2.63,5.61-.95,10.61.74,9.77,7.28l-9.46,29.14c-.19,2.13,3.93,2.15,5.43,2.96.63.34.65,1.15-.1,1.35-1.81.47-3.71.65-5.46,1.34-5.68,2.23-10.1,7.3-13.98,11.8l-.81-.38c-.29-.37,1.24-4.77,1.51-5.57.72-2.08,1.88-4.4,2.6-6.48.34-.99,1.26-3.22.41-4.01-1.31-1.22-7.13-.77-6.41-3.66.81-3.26,7,2.12,8.29.23l8.41-26.34c.23-.84.19-2.21-.21-2.97Z"/></g><g id="Paris_1848_Cercle"><path d="M81.63,155.46c2.33,1.05,4.87,1.2,6.14-.32.21-.25.55-.32.84-.19l.29.13s-1.01,1.75-1.88,3.91c-.76,1.9-1.74,3.82-2.18,5.13-.29.86-1.49,3.31-1.49,3.31l-.21-.1c-.35-.16-.56-.51-.55-.89.03-1.61-.7-2.44-2.8-3.38,0,0-12.2-5.81-16.22-7.85-6.65-3.36-12.67-5.16-12.91-5.24,0,0-.01,0-.02,0-2.23-1-3.38-.92-4.7.48-.07.07-.17.1-.26.06l-.65-.29,2.5-5.58,3.47-8.8c.23-.52.44-.98.67-1.49,4.49-10,11.23-14.09,18.13-10.99,7.01,3.15,8.08,10.61,3.15,21.58-.75,1.67-1.19,2.51-2.43,4.85-.06.12-.02.27.11.33l11.01,5.35ZM70.7,145.94c3.61-8.05,2.47-12.43-4.02-15.34-6.09-2.74-11.61-.86-14.63,5.87-.31.69-.39,1.89-.56,2.58-.32,1.79.33,2.64,2.86,3.77l14.46,6.49c.11.05.25,0,.3-.11.83-1.59,1.14-2.26,1.58-3.26Z"/><path d="M109.57,119.15c.23,2.8-.45,3.77-1.32,5.66-1.04,2.24-3.9,2.81-6.33,1.42l-.05,1.31c0,.94-.03,1.8-.11,2.53-.11,2.22-.94,4.44-2.21,6.09-1.38,1.79-3.08,3.13-4.86,3.16-1.72.04-3.83-.69-5.12-1.98-2.3-2.29-2.77-4.13-2.09-8.54.48-2.8,1.26-6.1,2.79-11.51l-5.1-3.91c-1.65-1.26-3.51-1.02-4.73.58-1.03,1.35-1.15,2.53-.29,3.9l.74,1.21c1.39,2.33,1.51,3.93.43,5.34-1.03,1.35-2.79,1.67-3.99.75-1.45-1.11-1.49-3.13-1.26-5.67.21-2.37,1.71-4.64,3.58-7.08,1.74-2.27,3.3-4.03,5.24-4.48,1.41-.32,4.13-.57,6.01.88,0,0,5.54,4.25,7.39,6.14,1.66,1.7,7.76,5.47,7.76,5.47,1.05.8,1.73.85,2.19.25.19-.25.25-.48.2-.83-.04-.29.17-.57.47-.6l.66-.09ZM90.29,124.93c-.3,2.87.58,5.05,2.68,6.66,1.02.78,2.07,1.34,3.04,1.26,1.12-.1,2.24-.37,2.97-1.33,1-1.3,1.27-2.59,1.54-6.36l-8.85-6.78c-.94,3.41-1.12,4.46-1.38,6.56Z"/><path d="M113.98,108.73c1.71,1.39,2.32.74,3.86.94.2.03.64.52.64.52,0,0-1.84,2.47-3.19,3.93-.54.58-1.59,1.89-2.41,2.92-.63.79-1.11,1.42-1.11,1.42,0,0-.57-.32-.64-.52-.51-1.46,0-2.19-1.72-3.58,0,0-5.48-4.64-7.23-6.26-1.81-1.68-6.62-4.97-6.62-4.97-1.52-1.23-2.2-1.29-3.32-.5l-.53-.43c-.24-.19-.32-.52-.2-.8.69-1.65.91-2.78,1.36-3.87.48-1.15.42-2.17.63-3.85l.33-.41c.23-.29.66-.33.95-.1l3.44,2.79c-.17-.79-.33-1.4-.41-1.79-.56-2.81-.15-5.31,1.08-6.83.61-.76,1.34-1.05,2.25-1.31.8-.23,1.68.12,2.39.69,1.37,1.11,1.55,2.79.4,4.21-.36.44-.85.85-1.29.99l-1.33.54c-.35.13-.68.34-.92.63-.83,1.03-1.03,2.17-.74,4.02,0,0,7.22,5.53,10.1,8.19,1,.92,4.24,3.43,4.24,3.43Z"/><path d="M124.07,103.2l-.3-.3c-.16-.16-.23-.41-.17-.63.38-1.28.04-2-1.39-3.45,0,0-4.69-5.04-6.45-6.51s-6.1-6.16-6.1-6.16c-1.38-1.39-2.09-1.57-3.34-.77l-.46-.46c-.23-.23-.28-.59-.12-.87,1.7-3.04,2.06-4.01,2.89-7.53l.39-.39c.23-.23.6-.22.82,0,.06-.09,5.28,5.12,6.95,7.01,2.47,2.8,10.51,10.61,10.51,10.61,1.43,1.45,2.15,1.79,3.41,1.45.21-.06.43.01.58.17l.32.32s-1.13.96-2.22,2.17c-1.03,1.14-2.05,2.02-2.58,2.59-1.02,1.09-2.76,2.74-2.76,2.74ZM98.17,70.3c3.76-3.92,10.3,3.74,4.63,6.44-3.49,1.66-7.58-3.35-4.63-6.44Z"/><path d="M130.87,66.46c-.32-.4-.59-.75-.77-.93-2.26-2.2-6.04-2.01-8.41.43-1.98,2.03-1.94,4.55-.4,6.64,1.27,1.72,3.99,1.51,7.58.16,2.62-.97,4.48-1.62,5.76-2.04,3.51-1.07,6.62-.84,8.67,1.58,3.26,3.85,2.76,9.12-1.37,13.96-3,3.52-4.76,3.8-10.01,5.36-.25.07-.52-.03-.66-.26l-2.85-4.94c-.21-.37-.07-.84.31-1.03l.31-.15c.41.4.68.75.95,1.01,2.62,2.55,7.01,2.22,9.43-.76,1.98-2.44,2.7-4.84.72-6.77-1.4-1.36-3.36-1.6-5.98-.72l-2.84.97c-1.62.55-3.29.96-4.99,1.16-3.04.36-5.44.07-7.22-1.66-3.52-3.43-2.97-9.05,1.29-13.43,2.11-2.17,3.54-3.77,7.97-5.35l3.18,5.63c.19.34.06.78-.29.96l-.37.18Z"/><path d="M305.22,36.37s.2-.67.31-.8c1.11-1.25,2.08-1.15,2.28-3.35,0,0,1.05-7.31,1.28-11.68.31-5.8,1.04-13.93,1.04-13.93.17-1.87-.31-2.74-1.94-3.11l.05-.51c.03-.28.23-.52.51-.58,3.02-.72,3.93-1.01,6.8-2.39l1.37.12c.46.04.79.44.75.9,0,0-.53,7.4-.9,9.93-.78,5.44-1.98,21.91-1.98,21.91-.19,2.14.98,2.48,1.81,3.88.09.14-.06.66-.06.66,0,0-3.64-.49-5.7-.52-1.05-.01-2.25-.21-3.3-.22-1.32-.02-2.33-.29-2.33-.29Z"/><path d="M326.81,10.54c.47-2.42,2.22-3.99,4.07-5.48,2.11-1.7,5.97-1.94,9.69-1.09,6.4,1.48,9.94,5.51,9.21,10.4-.42,2.84-2.63,4.77-5.8,5.74-1.28.38-2.05.55-4.17.91,2.99,2.22,5.45,4,6.16,6.19.74,2.27,1.51,4.25.95,6.67-1.42,6.13-7.84,9.41-15.15,7.72-4.18-.96-7.76-2.83-9.3-5.61-1.38-2.49-2.01-4.32-1.46-6.68.93-4.03,4.34-6.34,10.85-7.48.29-.05.38-.43.14-.6-4.4-3.12-5.96-6.7-5.19-10.69ZM330.17,24.68c-1.55,1.06-2.59,2.86-3.16,5.33-1.22,5.27.7,9.23,4.95,10.21,3.87.89,8.19-1.4,8.45-5.7.3-4.97-1.31-6.89-6.18-11.28-2.13.41-2.99.67-4.07,1.44ZM345.15,13.04c.07-3.83-1.33-6.96-4.99-7.8-3.44-.79-6.08,1.07-7.31,4.66-1.13,3.3.8,6.5,4.73,9.33.37.26.84.32,1.27.17,3.17-1.09,6.24-3.22,6.3-6.36Z"/><path d="M369.61,44.39l-1.62,3.99c-.85,2.1.19,2.61.6,4.24.05.2-.31.77-.31.77,0,0-.91-.16-1.83-.7-1.04-.6-3.2-1.34-3.79-1.65-1.72-.9-4.92-1.93-4.92-1.93,0,0,.36-.58.53-.69,1.38-.86,2.37-.75,3.16-2.69l1.62-3.99s-2.64-1.22-5.85-2.37c-4.23-1.52-7.81-3.17-7.81-3.17l.68-1.69s9.04-6.42,11.83-8.84c3.03-2.64,12.97-9.69,12.97-9.69l4.49,1.82c.49.2.72.75.52,1.23,0,0-3.81,8.29-4.76,11.17-.91,2.77-4.18,10.87-4.18,10.87l3.74,1.52c.53.22.79.82.57,1.35l-.96,2.36-4.71-1.91ZM364.82,37.4l6.84-16.85-17.99,13.49,9.74,3.95c.56.23,1.19-.04,1.41-.6Z"/><path d="M388.71,31.79c1.15-2.18,3.28-3.18,5.48-4.07,2.51-1.02,6.28-.13,9.59,1.78,5.7,3.27,7.91,8.16,5.79,12.63-1.23,2.59-3.91,3.8-7.22,3.81-1.33,0-2.12-.07-4.26-.35,2.21,2.99,4.05,5.41,4.1,7.71s.21,4.51-1.03,6.66c-3.14,5.46-10.23,6.73-16.74,2.98-3.72-2.14-6.61-4.97-7.27-8.07-.59-2.78-.66-4.72.54-6.81,2.06-3.59,5.99-4.8,12.56-4,.29.04.49-.3.31-.53-3.3-4.27-3.75-8.14-1.86-11.74ZM387.81,46.3c-1.79.56-3.31,1.98-4.57,4.19-2.7,4.69-2.01,9.03,1.77,11.21,3.45,1.98,8.24,1.04,9.74-2.99,1.73-4.66.74-6.97-2.63-12.59-2.16-.22-3.05-.23-4.31.19ZM405.53,39.51c1.18-3.65.75-7.05-2.51-8.92-3.06-1.76-6.13-.75-8.35,2.33-2.03,2.83-1.13,6.45,1.82,10.3.27.36.71.55,1.17.53,3.35-.12,6.91-1.26,7.87-4.25Z"/><line class="cls-1" x1="235.45" y1="25.09" x2="201.16" y2="34.51"/></g></g></svg>